<svg version="1.0" xmlns="http://www.w3.org/2000/svg" viewBox="0 0 100 100" width="512" height="512">
	<title>safeWaters_icon</title>
	<style>
		.s0 { fill: #5EAAA8;} 
		.s1 { fill: #056676;}	
		.s2 { fill: #E8DED2; } 
	</style>
	<!-- Escudo exterior con el borde verde -->
	<path class="s0" d="m49.9 94l-0.8-0.3c-21-6.8-35-26.2-35-48.3v-29.2l35.7-10.3 35.8 10.3v29.2c0 22.1-14 41.5-34.9 48.3z"/>
	
	<!-- Escudo interior totalmente relleno -->
  	<g transform="scale(0.88) translate(6.9, 6.9)">
		<path class="s1" d="m49.9 94l-0.8-0.3c-21-6.8-35-26.2-35-48.3v-29.2l35.7-10.3 35.8 10.3v29.2c0 22.1-14 41.5-34.9 48.3z"/>	
	</g>

	<!-- Icono de barco -->
	<g transform="scale(0.12) translate(160, 185)">
		<path class="s2" d="m205 1.9c-1.9 1-4.2 2.9-5.2 4.2-1.5 2-11.7 39-11.8 42.6 0 1 14.3 1.3 68 1.3 53.7 0 68-0.3 68-1.3-0.1-3.9-10.2-40.1-11.9-42.6-4.4-6.1-4.2-6.1-56.3-6.1-44.2 0-47.6 0.1-50.8 1.9z"/>
		<path class="s2" d="m154.5 81.5c-2.2 0.8-4.1 1.5-4.2 1.5-0.1 0-1.2 1.4-2.4 3.1-1.5 2.2-5.5 16.2-12.9 46-5.9 23.6-10.6 42.9-10.4 42.9 0.2 0 26.4-13 58.2-28.8 31.7-15.9 59.8-29.5 62.4-30.2 3-0.8 8.2-1.1 13.9-0.8l9.1 0.4 59.4 29.7c32.7 16.3 59.6 29.7 59.8 29.7 1 0-21.3-85.9-22.9-88.3-4.3-6.6 2.3-6.2-107-6.4-84.4-0.2-99.6 0-103 1.2z"/>
		<path class="s2" d="m147.5 197.2c-50.6 25.3-93.1 47-94.4 48.1-2.8 2.6-5.1 7.6-5.1 11.1 0 1.4 17.1 36.8 38 78.6 33.8 67.6 38.2 76 39.8 75.1 1-0.5 5.6-2 10.2-3.2 7.3-2 10.9-2.3 24.5-2.3 14.5 0.1 16.8 0.3 25 2.8 17.1 5.2 32.9 14.5 48.5 28.5l7 6.2v-145.5c0-80.1-0.3-145.6-0.7-145.5-0.5 0-42.2 20.7-92.8 46.1z"/>
		<path class="s2" d="m271 296.6v145.6l6.8-6.1c15-13.7 32-23.6 48.9-28.8 7.9-2.4 10.4-2.6 24.8-2.7 13.6 0 17.2 0.3 24.5 2.3 4.6 1.2 9.2 2.7 10.2 3.2 1.6 0.9 6-7.5 39.8-75.1 20.9-41.8 38-77.1 38-78.5 0-3.4-1.8-7.6-4.3-10.4-1.7-1.8-186.2-95.1-188.2-95.1-0.3 0-0.5 65.5-0.5 145.6z"/>
	</g>
</svg>